<svg width="29" height="27" viewBox="0 0 29 27" fill="none" xmlns="http://www.w3.org/2000/svg">
<path d="M8.6611 17.5961C9.27512 17.5961 9.77288 17.0983 9.77288 16.4843C9.77288 15.8703 9.27512 15.3725 8.6611 15.3725C8.04708 15.3725 7.54932 15.8703 7.54932 16.4843C7.54932 17.0983 8.04708 17.5961 8.6611 17.5961Z" fill="#021751" stroke="#021751" stroke-width="0.5"/>
<path d="M20.3388 17.5961C20.9529 17.5961 21.4506 17.0983 21.4506 16.4843C21.4506 15.8703 20.9529 15.3725 20.3388 15.3725C19.7248 15.3725 19.2271 15.8703 19.2271 16.4843C19.2271 17.0983 19.7248 17.5961 20.3388 17.5961Z" fill="#021751" stroke="#021751" stroke-width="0.5"/>
<path d="M28.5 16.0125C28.5 14.402 27.3327 13.0601 25.7998 12.7858V12.2999C25.7998 6.06908 20.7307 1 14.5 1C8.26925 1 3.20017 6.06908 3.20017 12.2999V12.7858C1.66735 13.0601 0.5 14.4021 0.5 16.0125C0.5 17.6368 1.68746 18.9883 3.23974 19.2463C3.45822 21.7359 4.59728 23.5749 6.63572 24.7193C8.44852 25.7371 11.0209 26.2318 14.5 26.2318C17.9791 26.2318 20.5515 25.737 22.3643 24.7193C24.4027 23.5749 25.5418 21.736 25.7603 19.2463C27.3125 18.9884 28.5 17.6368 28.5 16.0125ZM1.65751 16.0125C1.65751 15.0434 2.31092 14.2247 3.2001 13.972V18.053C2.31092 17.8004 1.65751 16.9816 1.65751 16.0125ZM24.6423 18.3355C24.6423 20.8773 23.7118 22.6353 21.7977 23.71C20.1625 24.628 17.7754 25.0743 14.5 25.0743C11.2247 25.0743 8.83752 24.628 7.20239 23.71C5.28817 22.6353 4.35768 20.8773 4.35768 18.3355V12.2999C4.35768 7.71983 7.40952 3.83987 11.5862 2.58477C14.7681 2.62499 16.4627 4.92192 16.4627 6.58511C16.4627 7.85895 15.4263 8.89535 14.1524 8.89535C13.1972 8.89535 12.42 8.11816 12.42 7.16293C12.42 6.46256 12.9898 5.89271 13.6902 5.89271C14.0098 5.89271 14.269 5.63357 14.269 5.31395C14.269 4.99434 14.0098 4.7352 13.6902 4.7352C12.3516 4.7352 11.2625 5.82427 11.2625 7.16293C11.2625 8.75645 12.5589 10.0529 14.1524 10.0529C16.0646 10.0529 17.6202 8.49724 17.6202 6.58511C17.6202 5.38384 17.0166 4.09141 16.0057 3.12779C15.6013 2.74234 15.1412 2.41831 14.6391 2.15932C20.1676 2.23412 24.6423 6.75389 24.6423 12.2999V18.3355ZM25.7998 18.053V13.9721C26.6891 14.2247 27.3425 15.0435 27.3425 16.0126C27.3425 16.9816 26.689 17.8004 25.7998 18.053Z" fill="#021751" stroke="#021751" stroke-width="0.5"/>
<path d="M16.7383 18.0784C15.5041 19.3126 13.4958 19.3126 12.2617 18.0784C12.0356 17.8523 11.6693 17.8523 11.4432 18.0784C11.2172 18.3044 11.2172 18.6708 11.4432 18.8969C12.2859 19.7396 13.393 20.161 14.5 20.161C15.607 20.161 16.714 19.7396 17.5568 18.8969C17.7828 18.6708 17.7828 18.3044 17.5568 18.0784C17.3307 17.8523 16.9643 17.8523 16.7383 18.0784Z" fill="#021751" stroke="#021751" stroke-width="0.5"/>
</svg>
