<svg width="54" height="34" viewBox="0 0 54 34" fill="none" xmlns="http://www.w3.org/2000/svg">
<path d="M35.0366 3.87727H18.9703V30.1183H35.0366V3.87727Z" fill="#FF5F00"/>
<path d="M20.6252 17.0018C20.6232 14.475 21.196 11.9809 22.3002 9.70819C23.4044 7.43546 25.0112 5.4437 26.9988 3.88362C24.537 1.9489 21.5806 0.745816 18.4674 0.411863C15.3541 0.0779105 12.2098 0.626564 9.39363 1.99512C6.57749 3.36367 4.20318 5.49691 2.54207 8.15103C0.880956 10.8051 6.10352e-05 13.8731 6.10352e-05 17.0041C6.10352e-05 20.1352 0.880956 23.2031 2.54207 25.8572C4.20318 28.5113 6.57749 30.6446 9.39363 32.0131C12.2098 33.3817 15.3541 33.9303 18.4674 33.5964C21.5806 33.2624 24.537 32.0594 26.9988 30.1246C25.0106 28.5641 23.4035 26.5716 22.2992 24.298C21.1949 22.0244 20.6225 19.5294 20.6252 17.0018Z" fill="#EB001B"/>
<path d="M54 17.0001C53.9999 20.1314 53.1188 23.1995 51.4574 25.8537C49.796 28.5079 47.4214 30.6412 44.6049 32.0095C41.7884 33.3779 38.6437 33.9262 35.5303 33.5917C32.4169 33.2573 29.4604 32.0536 26.9988 30.1183C28.9856 28.5569 30.5919 26.5645 31.6965 24.2917C32.801 22.0188 33.3749 19.5248 33.3749 16.9978C33.3749 14.4708 32.801 11.9768 31.6965 9.70392C30.5919 7.43107 28.9856 5.43876 26.9988 3.87729C29.4604 1.94197 32.4169 0.738301 35.5303 0.403868C38.6437 0.069436 41.7884 0.617737 44.6049 1.9861C47.4214 3.35446 49.796 5.48766 51.4574 8.14186C53.1188 10.7961 53.9999 13.8642 54 16.9955V17.0001Z" fill="#F79E1B"/>
</svg>
