<svg width="18" height="27" viewBox="0 0 18 27" fill="none" xmlns="http://www.w3.org/2000/svg">
<path d="M17.5366 8.03914C17.4375 6.8877 16.6566 5.87486 15.5468 5.45898C14.8379 5.19296 14.678 4.54233 14.6463 4.35208C14.8025 4.17934 15.5984 3.97118 16.3369 3.91542C16.4988 3.90293 16.6391 3.79721 16.6957 3.64481C16.7524 3.49246 16.7149 3.32094 16.6 3.20606C14.3354 0.941034 9.02985 0.997623 8.82755 1.00304C8.5807 0.993476 2.77434 0.831954 0.956421 4.96148C0.905784 5.05115 -0.250874 7.20802 1.32552 12.3237L1.31947 14.3709C1.31947 17.2141 1.59836 20.1102 3.62444 22.0334C3.94729 22.3399 4.29448 22.6145 4.64958 22.8723V25.5633C4.64958 25.7935 4.83564 25.9796 5.06585 25.9796C5.29606 25.9796 5.48212 25.7935 5.48212 25.5633V23.4478C5.52881 23.4791 5.57564 23.5105 5.62218 23.5416L6.02181 23.8106C6.17958 23.9172 6.33359 24.0312 6.48765 24.1445C7.15369 24.6378 7.84266 25.1473 8.81262 25.1473C9.78214 25.1473 10.4711 24.6378 11.1376 24.1445C11.2912 24.0312 11.4452 23.9172 11.603 23.8106L12.0031 23.5416C12.0495 23.5106 12.0962 23.4792 12.1428 23.448V25.5633C12.1428 25.7935 12.3288 25.9796 12.559 25.9796C12.7893 25.9796 12.9753 25.7935 12.9753 25.5633V22.8723C13.3303 22.6145 13.6776 22.3399 14.0004 22.0334C16.0365 20.1006 16.317 17.1862 16.317 14.3238V13.1446C17.2498 11.2017 17.6601 9.48396 17.5366 8.03914ZM1.70027 5.33326C3.30715 1.68703 8.74091 1.82977 8.81877 1.83519C8.86579 1.83436 12.9758 1.78772 15.2841 3.22601C14.5593 3.3867 13.8083 3.71057 13.8092 4.3654C13.8133 4.42116 13.9316 5.74207 15.2545 6.23869C16.065 6.54217 16.6358 7.27734 16.707 8.11032C16.7777 8.9371 16.6466 9.87726 16.3169 10.9193V10.5773C16.3169 10.1839 16.2395 9.80213 16.0876 9.44245C15.5414 8.14739 14.0095 7.53169 12.602 8.04163C12.0296 8.24896 10.9093 8.4958 8.82374 8.4958C6.73815 8.4958 5.61793 8.24896 5.04551 8.04163C3.63888 7.53086 2.10654 8.14778 1.55909 9.44245C1.54299 9.48055 1.52821 9.51899 1.51382 9.55758C1.03184 6.64213 1.67934 5.37419 1.70027 5.33326ZM15.4844 14.3238C15.4844 17.0001 15.2351 19.7135 13.4271 21.4295C13.1044 21.7359 12.7459 22.0137 12.3768 22.2771C12.3344 22.2978 12.2958 22.3251 12.263 22.3583C12.0234 22.5264 11.7803 22.6889 11.5401 22.8494L11.1355 23.1208C10.9682 23.2345 10.8054 23.3552 10.6426 23.4755C10.0589 23.9068 9.50739 24.3147 8.81262 24.3147C8.11741 24.3147 7.56586 23.9067 6.98221 23.4755C6.81942 23.3552 6.65668 23.2344 6.48935 23.1208L6.08474 22.8494C5.43407 22.4148 4.76178 21.9652 4.1977 21.4295C2.30982 19.6378 2.15206 16.8466 2.15206 14.3721L2.16328 10.5773C2.16328 10.2958 2.21821 10.0228 2.32646 9.76632C2.60955 9.0957 3.29101 8.69562 4.03491 8.69562C4.27468 8.69562 4.52113 8.73723 4.76256 8.82465C5.39738 9.05404 6.61756 9.32834 8.82384 9.32834C11.0301 9.32834 12.2499 9.05404 12.8851 8.82465C13.8776 8.46624 14.9462 8.87919 15.3208 9.76628C15.4295 10.0227 15.4845 10.2958 15.4845 10.5772V14.3238H15.4844Z" fill="#021751" stroke="#021751" stroke-width="0.5"/>
</svg>
