<svg width="26" height="26" viewBox="0 0 26 26" fill="none" xmlns="http://www.w3.org/2000/svg">
<path d="M24.245 13.3368C24.1404 13.1227 24.1404 12.8773 24.245 12.6633L25.2147 10.6795C25.7546 9.57499 25.3268 8.2585 24.2408 7.6823L22.2903 6.64739C22.0799 6.53577 21.9356 6.33712 21.8945 6.10256L21.513 3.92767C21.3006 2.71676 20.1805 1.90305 18.9634 2.07525L16.7771 2.3845C16.5412 2.41781 16.3078 2.34195 16.1366 2.17635L14.5497 0.64115C13.6661 -0.213691 12.2818 -0.213742 11.3982 0.64115L9.81119 2.1765C9.63996 2.34215 9.40662 2.41786 9.1707 2.38465L6.98444 2.0754C5.76697 1.9031 4.64726 2.71691 4.43484 3.92783L4.05338 6.10261C4.01219 6.33722 3.86793 6.53582 3.65754 6.64749L1.70706 7.6824C0.621062 8.25855 0.193285 9.57514 0.733185 10.6797L1.70284 12.6634C1.80745 12.8774 1.80745 13.1229 1.70284 13.3369L0.733134 15.3206C0.193234 16.4251 0.621011 17.7416 1.70701 18.3178L3.65749 19.3527C3.86793 19.4643 4.01219 19.663 4.05338 19.8975L4.43484 22.0724C4.62821 23.1748 5.57345 23.9478 6.6598 23.9477C6.76679 23.9477 6.87536 23.9402 6.98449 23.9248L9.17075 23.6155C9.40652 23.5821 9.64001 23.6581 9.81124 23.8237L11.3982 25.3589C11.8401 25.7864 12.4069 26 12.9739 26C13.5408 25.9999 14.1079 25.7863 14.5496 25.3589L16.1366 23.8237C16.3079 23.6581 16.5413 23.5824 16.7771 23.6155L18.9634 23.9248C20.181 24.097 21.3006 23.2833 21.513 22.0724L21.8945 19.8976C21.9357 19.663 22.08 19.4644 22.2903 19.3527L24.2408 18.3178C25.3268 17.7416 25.7546 16.425 25.2147 15.3205L24.245 13.3368ZM23.538 16.9931L21.5875 18.028C20.9656 18.358 20.5391 18.9449 20.4175 19.6384L20.036 21.8132C19.9642 22.2229 19.5854 22.4981 19.1734 22.44L16.9872 22.1307C16.2899 22.0319 15.6 22.2563 15.094 22.7458L13.507 24.281C13.2081 24.5701 12.7398 24.5701 12.4408 24.281L10.8538 22.7458C10.4261 22.3321 9.86705 22.1079 9.28338 22.1079C9.17644 22.1079 9.06863 22.1154 8.96067 22.1307L6.77441 22.4399C6.36278 22.4981 5.9837 22.2229 5.9118 21.8132L5.53028 19.6383C5.40861 18.9448 4.98216 18.3579 4.36024 18.0279L2.40976 16.993C2.04231 16.7981 1.89759 16.3527 2.08024 15.979L3.04995 13.9952C3.3591 13.3627 3.3591 12.6373 3.04995 12.0047L2.08024 10.021C1.89759 9.6473 2.04231 9.20191 2.40976 9.00696L4.36024 7.97205C4.9821 7.64203 5.40861 7.0551 5.53023 6.36164L5.9117 4.18681C5.9836 3.77711 6.36232 3.50188 6.77431 3.56007L8.96057 3.86933C9.65753 3.96799 10.3477 3.7437 10.8537 3.25422L12.4407 1.71902C12.7396 1.42988 13.208 1.42988 13.507 1.71902L15.0939 3.25422C15.5999 3.74375 16.29 3.96799 16.9871 3.86933L19.1733 3.56007C19.585 3.50183 19.9641 3.77711 20.0359 4.18681L20.4174 6.36169C20.5391 7.05515 20.9655 7.64213 21.5874 7.97205L23.5379 9.00696C23.9054 9.20191 24.0501 9.6473 23.8674 10.021L22.8977 12.0047C22.5886 12.6372 22.5886 13.3627 22.8977 13.9952L23.8674 15.9789C24.0501 16.3527 23.9054 16.7981 23.538 16.9931Z" fill="#021751"/>
<path d="M18.4522 7.52153C18.1594 7.22873 17.6846 7.22873 17.3918 7.52153L7.49524 17.4182C7.20243 17.711 7.20243 18.1857 7.49524 18.4785C7.64164 18.6249 7.83354 18.6981 8.02539 18.6981C8.21724 18.6981 8.40919 18.625 8.55554 18.4785L18.4521 8.58193C18.745 8.28908 18.745 7.81438 18.4522 7.52153Z" fill="#021751"/>
<path d="M9.9748 6.25201C8.4589 6.25201 7.22559 7.48532 7.22559 9.00122C7.22559 10.5171 8.4589 11.7504 9.9748 11.7504C11.4907 11.7504 12.724 10.5171 12.724 9.00122C12.724 7.48532 11.4907 6.25201 9.9748 6.25201ZM9.9748 10.2508C9.28576 10.2508 8.72519 9.69026 8.72519 9.00117C8.72519 8.31213 9.28576 7.75156 9.9748 7.75156C10.6638 7.75156 11.2245 8.31213 11.2245 9.00117C11.2244 9.69026 10.6638 10.2508 9.9748 10.2508Z" fill="#021751"/>
<path d="M15.9731 14.2497C14.4572 14.2497 13.2239 15.483 13.2239 16.9989C13.2239 18.5148 14.4572 19.7481 15.9731 19.7481C17.489 19.7481 18.7223 18.5148 18.7223 16.9989C18.7223 15.483 17.489 14.2497 15.9731 14.2497ZM15.9731 18.2485C15.284 18.2485 14.7234 17.6879 14.7234 16.9989C14.7234 16.3098 15.284 15.7493 15.9731 15.7493C16.6621 15.7493 17.2227 16.3098 17.2227 16.9989C17.2227 17.6879 16.6621 18.2485 15.9731 18.2485Z" fill="#021751"/>
</svg>
