<svg width="28" height="30" viewBox="0 0 28 30" fill="none" xmlns="http://www.w3.org/2000/svg">
<path d="M2.66675 13.6667V17.6667C2.66675 22.6947 2.66675 25.2093 4.22941 26.7707C5.79075 28.3333 8.30541 28.3333 13.3334 28.3333H14.6667C19.6947 28.3333 22.2094 28.3333 23.7707 26.7707M25.3334 13.6667V17.6667C25.3334 19.2267 25.3334 20.544 25.2867 21.6667" stroke="#1036E2" stroke-width="1.5" stroke-linecap="round"/>
<path d="M10.6668 1.66666H17.3334M10.6668 1.66666L9.79744 10.356C9.74017 10.9423 9.80623 11.5342 9.99137 12.0935C10.1765 12.6528 10.4766 13.1672 10.8725 13.6035C11.2683 14.0399 11.751 14.3886 12.2897 14.6272C12.8283 14.8659 13.411 14.9892 14.0001 14.9892C14.5893 14.9892 15.1719 14.8659 15.7105 14.6272C16.2492 14.3886 16.7319 14.0399 17.1278 13.6035C17.5236 13.1672 17.8237 12.6528 18.0088 12.0935C18.194 11.5342 18.2601 10.9423 18.2028 10.356L17.3334 1.66666M10.6668 1.66666H7.89078C6.68011 1.66666 6.07478 1.66666 5.55478 1.80932C5.01393 1.95766 4.51033 2.21808 4.07665 2.57366C3.64297 2.92924 3.28891 3.37204 3.03745 3.87332M10.6668 1.66666L9.70011 11.3267C9.6491 11.8795 9.48579 12.4161 9.22019 12.9036C8.95458 13.3912 8.59227 13.8194 8.15543 14.162C7.71859 14.5047 7.21642 14.7545 6.67965 14.8964C6.14289 15.0382 5.58282 15.069 5.03374 14.9869C4.48467 14.9047 3.95813 14.7114 3.48636 14.4187C3.0146 14.126 2.60754 13.7401 2.2901 13.2846C1.97265 12.8291 1.75151 12.3136 1.64021 11.7697C1.5289 11.2258 1.52978 10.6649 1.64278 10.1213L1.73345 9.66666M17.3334 1.66666H20.1094C21.3201 1.66666 21.9254 1.66666 22.4454 1.80932C22.9863 1.95766 23.4899 2.21808 23.9236 2.57366C24.3573 2.92924 24.7113 3.37204 24.9628 3.87332C25.2041 4.35332 25.3228 4.94799 25.5601 6.13466L26.3574 10.1213C26.4704 10.6649 26.4713 11.2258 26.36 11.7697C26.2487 12.3136 26.0276 12.8291 25.7101 13.2846C25.3927 13.7401 24.9856 14.126 24.5139 14.4187C24.0421 14.7114 23.5156 14.9047 22.9665 14.9869C22.4174 15.069 21.8573 15.0382 21.3206 14.8964C20.7838 14.7545 20.2816 14.5047 19.8448 14.162C19.408 13.8194 19.0456 13.3912 18.78 12.9036C18.5144 12.4161 18.3511 11.8795 18.3001 11.3267L17.3334 1.66666ZM10.6668 27.6667V23.6667C10.6668 22.42 10.6668 21.7973 10.9348 21.3333C11.1103 21.0293 11.3628 20.7769 11.6668 20.6013C12.1308 20.3333 12.7534 20.3333 14.0001 20.3333C15.2468 20.3333 15.8694 20.3333 16.3334 20.6013C16.6375 20.7769 16.8899 21.0293 17.0654 21.3333C17.3334 21.7973 17.3334 22.42 17.3334 23.6667V27.6667" stroke="#1036E2" stroke-width="1.5" stroke-linecap="round"/>
</svg>
