<svg width="22" height="27" viewBox="0 0 22 27" fill="none" xmlns="http://www.w3.org/2000/svg">
<path d="M21.0924 9.56134C19.6224 0.674601 10.9511 1.00094 10.9051 1.00182C10.818 1.0001 2.14539 0.676761 0.675283 9.56134C0.397894 11.2394 0.449935 13.0224 0.829982 14.8604L2.92586 24.9893C2.99175 25.3104 3.21709 25.5648 3.52698 25.6701C3.83859 25.775 4.17185 25.7104 4.41978 25.4951L6.56176 23.6385V25.7047C6.56176 25.944 6.75549 26.1382 6.99517 26.1382C7.23485 26.1382 7.42858 25.944 7.42858 25.7047V23.516C7.47081 23.5443 7.51298 23.5725 7.55505 23.6006L7.97069 23.8797C8.13497 23.9907 8.29487 24.1094 8.45438 24.2273C9.14869 24.7405 9.86636 25.2714 10.8758 25.2714C11.8852 25.2714 12.6028 24.7409 13.2967 24.2278C13.4566 24.1094 13.617 23.9907 13.7812 23.8797L14.1604 23.624C14.2277 23.5789 14.2953 23.5335 14.3629 23.488V25.7048C14.3629 25.944 14.5566 26.1382 14.7963 26.1382C15.036 26.1382 15.2297 25.944 15.2297 25.7048V23.6589L17.348 25.495C17.5184 25.6423 17.7286 25.7195 17.944 25.7195C18.0428 25.7195 18.1429 25.7031 18.2408 25.6701C18.5507 25.5648 18.7761 25.3104 18.842 24.9897L20.9378 14.8605C21.3178 13.0224 21.3698 11.2394 21.0924 9.56134ZM13.678 22.9041L13.2945 23.162C13.1207 23.2798 12.9508 23.4055 12.7813 23.5308C12.1733 23.9797 11.5995 24.4045 10.8757 24.4045C10.1519 24.4045 9.57768 23.9797 8.97008 23.5303C8.8006 23.4051 8.63117 23.2798 8.45738 23.162L8.03697 22.8798C7.78934 22.7142 7.53861 22.5464 7.29136 22.3731C7.26269 22.3462 7.23048 22.3231 7.19528 22.3047C6.80012 22.0241 6.41594 21.7281 6.0711 21.4011C4.10611 19.5353 3.9414 16.6294 3.9414 14.052C3.9414 12.2327 4.31236 10.7804 4.56073 10.0119C5.22077 10.5727 6.49975 11.4027 8.28446 11.4027C8.46911 11.4027 8.63289 11.2857 8.69357 11.1119C8.75425 10.9377 8.69789 10.7439 8.55316 10.6295C7.88095 10.0969 6.90974 9.07367 6.96002 8.56922C6.9635 8.53456 6.97087 8.46258 7.08354 8.38025C7.91473 8.47559 12.7696 9.25616 17.6171 14.7958C17.7489 14.9462 17.8204 15.1403 17.8182 15.3419C17.8061 16.5727 17.5742 19.6264 15.6825 21.3989C15.0796 21.9645 14.3671 22.4421 13.678 22.9041ZM20.0887 14.6849L17.9928 24.8146C17.9911 24.8224 17.9876 24.8406 17.962 24.8493C17.9364 24.8583 17.9217 24.8454 17.9161 24.8402L15.4614 22.7126C15.7417 22.4995 16.0153 22.2748 16.2749 22.0312C18.4111 20.0298 18.6719 16.6927 18.685 15.3505C18.6888 14.9357 18.5415 14.5362 18.2698 14.2254V14.225C12.7341 7.89916 7.2404 7.51608 7.00852 7.50262C6.93223 7.49874 6.85599 7.51475 6.78794 7.54941C6.26743 7.81379 6.1253 8.20341 6.09756 8.48379C6.03516 9.10833 6.50147 9.80436 6.9964 10.3552C5.5584 9.94349 4.72761 8.97096 4.71764 8.95923C4.62274 8.84395 4.4732 8.78676 4.32542 8.80625C4.17676 8.82662 4.04936 8.92197 3.98823 9.05889C3.95097 9.14211 3.07462 11.1348 3.07462 14.052C3.07462 17.0121 3.36541 20.0277 5.4743 22.0295C5.73578 22.2775 6.01238 22.5055 6.29605 22.721L3.8516 24.8401C3.84595 24.8453 3.83123 24.8583 3.80565 24.8492C3.78007 24.8405 3.77663 24.8224 3.77486 24.8141L1.67899 14.6849C1.32059 12.9518 1.27032 11.2753 1.53033 9.70258C2.87348 1.5865 10.5406 1.85171 10.9051 1.86776C11.2319 1.85171 18.8921 1.57088 20.2373 9.70263C20.4974 11.2754 20.4471 12.9518 20.0887 14.6849Z" fill="#021751" stroke="#021751" stroke-width="0.5"/>
</svg>
